<svg width="31" height="30" viewBox="0 0 31 30" fill="none" xmlns="http://www.w3.org/2000/svg">
<path d="M15.9136 4.46997C15.2136 4.41997 14.4836 4.57997 13.8336 4.95997C13.416 5.19905 13.0498 5.51819 12.7558 5.8991C12.4619 6.28001 12.246 6.7152 12.1206 7.17971C11.9952 7.64423 11.9627 8.12893 12.025 8.60602C12.0872 9.08312 12.2431 9.54323 12.4836 9.95997L19.8236 22.66C20.8336 24.42 23.0736 25 24.8336 24C26.5836 23 27.1636 20.75 26.1636 19L18.8436 6.29997C18.5412 5.77931 18.1163 5.34042 17.6056 5.02148C17.0949 4.70253 16.5141 4.51321 15.9136 4.46997ZM10.4836 9.75997L5.16357 19C4.8394 19.5556 4.66698 20.1867 4.66357 20.83C4.66357 21.3119 4.7585 21.7892 4.94294 22.2344C5.12737 22.6797 5.3977 23.0843 5.73849 23.4251C6.07928 23.7658 6.48386 24.0362 6.92913 24.2206C7.37439 24.405 7.85162 24.5 8.33357 24.5C8.97687 24.498 9.60835 24.327 10.1647 24.004C10.7211 23.6811 11.1828 23.2176 11.5036 22.66V22.67L14.6636 17.19C13.3136 14.89 11.9336 12.6 10.6936 10.23C10.6136 10.08 10.5436 9.91997 10.4936 9.75997H10.4836Z" fill="#430102"/>
</svg>
