<svg width="31" height="30" viewBox="0 0 31 30" fill="none" xmlns="http://www.w3.org/2000/svg">
<g clip-path="url(#clip0_249_82)">
<path d="M26.0984 4.5H4.84531C3.77188 4.5 3.5 4.77656 3.5 5.85469V24.1453C3.5 25.2375 3.77188 25.5 4.84531 25.5H26.0984C27.2422 25.5 27.5 25.2562 27.5 24.1078V5.91563C27.5 4.7625 27.2469 4.5 26.0984 4.5ZM11.8625 13.3266C10.5734 12.3797 8.48281 12.9187 7.91562 14.4234C7.71406 14.9437 7.47969 14.8687 7.09531 14.8125C6.64062 14.7422 6.28906 14.6625 6.04063 14.5547C4.69063 14.0203 6.44375 11.9625 7.20781 11.5406C9.13437 10.5375 11.1172 10.5 13.0812 11.3156C14.9984 12.1031 14.6984 14.0906 14.6984 17.3391C14.825 18.5484 14.4969 20.0719 15.1344 21.5016C15.2234 21.7078 15.1531 21.8719 15.0078 22.0031C14.6141 22.3172 13.1656 22.1063 12.8234 21.6562C12.7344 21.5531 12.7391 21.4875 12.6406 21.3656C12.4719 21.1828 12.2984 21.2625 12.0828 21.4125C9.39219 23.1187 5.50625 22.4156 5.19219 19.3828C5.04687 18.0094 5.77344 16.7063 7.04844 16.0547C8.83906 15.1406 12.3078 15.5016 12.3922 14.6063C12.4437 14.1281 12.3031 13.6641 11.8625 13.3266ZM25.3016 23.7328C25.3016 24.4406 24.7812 24.1969 24.4672 24.1969H5.95625C5.60938 24.1969 5.10312 24.4219 5.12187 23.6953C5.14062 23.0438 5.61406 23.2687 5.92344 23.2687C12.125 23.25 18.3219 23.25 24.5234 23.2687C24.8422 23.2687 25.3016 23.0625 25.3016 23.7328ZM25.4797 7.77188V21.4125C25.4797 21.6797 25.4469 22.0641 25.1 22.0641C24.5187 22.0453 23.8109 22.3969 23.4078 21.8016C23.1359 21.3938 23.0422 21.6141 22.8266 21.7453C20.3234 23.1375 16.8219 22.0781 16.0578 17.7516C15.7719 16.1859 16.025 14.6062 16.7938 13.0641C17.3469 11.9437 19.4609 9.49687 23.1734 11.6344V8.30625C23.1734 7.07812 23.1688 7.07812 24.3922 7.07812C24.5375 7.07812 24.7016 7.09687 24.8469 7.07812C25.3203 7.04063 25.4844 7.28438 25.4844 7.74844C25.4797 7.75781 25.4797 7.7625 25.4797 7.77188ZM23.0656 18.6609C22.1516 20.8922 19.6484 20.6906 18.8469 18.9047C18.1391 17.3437 18.1203 15.7078 18.8656 14.1469C19.6297 12.5484 21.6641 12.4734 22.6859 13.9219C23.6516 15.2719 23.3844 17.8875 23.0656 18.6609ZM9.24687 20.3156C8.89531 20.2547 7.7 20.1609 7.66719 19.0125C7.64844 18.3609 8.03281 17.9344 8.59531 17.8031C9.73906 17.5266 10.9062 17.3391 12.05 17.1141C12.4672 17.0203 12.3969 17.3203 12.4156 17.5594C12.4812 19.1063 11.1922 20.3344 9.24687 20.3156Z" fill="#430102"/>
</g>
<defs>
<clipPath id="clip0_249_82">
<rect width="24" height="24" fill="white" transform="translate(3.5 3)"/>
</clipPath>
</defs>
</svg>
