<svg width="22" height="22" viewBox="0 0 22 22" fill="none" xmlns="http://www.w3.org/2000/svg">
<g filter="url(#filter0_i_327_1030)">
<path d="M11 18.7612C15.1292 18.7612 18.4766 15.4138 18.4766 11.2846C18.4766 7.15543 15.1292 3.80806 11 3.80806C6.87081 3.80806 3.52344 7.15543 3.52344 11.2846C3.52344 15.4138 6.87081 18.7612 11 18.7612Z" fill="url(#paint0_linear_327_1030)"/>
</g>
<g filter="url(#filter1_iiii_327_1030)">
<path fill-rule="evenodd" clip-rule="evenodd" d="M11.0001 20.8883C16.3041 20.8883 20.6037 16.5887 20.6037 11.2846C20.6037 5.98056 16.3041 1.68094 11.0001 1.68094C5.69599 1.68094 1.39636 5.98125 1.39636 11.2853C1.39636 16.5887 5.69599 20.8883 11.0001 20.8883ZM11.0001 18.7612C15.1292 18.7612 18.4766 15.4138 18.4766 11.2846C18.4766 7.1555 15.1292 3.80875 11.0001 3.80875C6.87093 3.80875 3.52349 7.1555 3.52349 11.2846C3.52349 15.4138 6.87093 18.7619 11.0001 18.7619V18.7612Z" fill="url(#paint1_linear_327_1030)"/>
</g>
<g filter="url(#filter2_f_327_1030)">
<path fill-rule="evenodd" clip-rule="evenodd" d="M6.81528 7.77906C6.75664 7.81636 6.70838 7.86787 6.67496 7.9288C6.64155 7.98974 6.62407 8.05813 6.62416 8.12763V8.32013C6.62418 8.4039 6.65479 8.48477 6.71024 8.54756C6.76569 8.61036 6.84216 8.65074 6.92528 8.66113V13.8841H6.85103C6.74452 13.8841 6.64105 13.9196 6.55682 13.9847C6.4726 14.0499 6.41238 14.1412 6.3856 14.2443L6.17247 15.0597C6.15923 15.1105 6.15782 15.1637 6.16835 15.2152C6.17887 15.2666 6.20105 15.315 6.23318 15.3566C6.26531 15.3981 6.30654 15.4318 6.3537 15.4549C6.40086 15.4781 6.45269 15.4901 6.50522 15.4901H15.0646C15.1163 15.4901 15.1674 15.4785 15.214 15.4561C15.2606 15.4337 15.3016 15.4011 15.3338 15.3606C15.3661 15.3202 15.3888 15.273 15.4003 15.2225C15.4117 15.1721 15.4117 15.1197 15.4001 15.0693L15.2131 14.2574C15.1887 14.1512 15.1289 14.0564 15.0436 13.9886C14.9583 13.9208 14.8525 13.8839 14.7435 13.8841H14.67V8.65906C14.7507 8.64631 14.8243 8.60518 14.8775 8.54306C14.9307 8.48094 14.96 8.4019 14.9601 8.32013V8.12763C14.9603 8.05819 14.9429 7.98985 14.9096 7.92891C14.8763 7.86798 14.8282 7.81644 14.7697 7.77906L11.0688 5.42438C10.9861 5.37177 10.8901 5.34383 10.7921 5.34383C10.6941 5.34383 10.5981 5.37177 10.5154 5.42438L6.81528 7.77975V7.77906ZM13.5638 13.8841V8.66388H12.4569V13.8841H13.5638ZM11.3507 13.8841V8.66388H10.2438V13.8841H11.3507ZM9.13766 13.8841V8.66388H8.03147V13.8841H9.13766Z" fill="#DC7B3C"/>
</g>
<g filter="url(#filter3_ii_327_1030)">
<path d="M6.83936 7.93375C6.83931 7.86443 6.85674 7.79623 6.89002 7.73542C6.92331 7.67462 6.97138 7.62319 7.02979 7.58588L10.7306 5.2305C10.8133 5.1779 10.9093 5.14996 11.0073 5.14996C11.1053 5.14996 11.2013 5.1779 11.284 5.2305L14.9842 7.58588C15.0427 7.62311 15.0909 7.67451 15.1243 7.73531C15.1577 7.79612 15.1753 7.86437 15.1753 7.93375V8.12625C15.1753 8.21742 15.1391 8.30485 15.0746 8.36932C15.0101 8.43378 14.9227 8.47 14.8315 8.47H7.18311C7.09194 8.47 7.0045 8.43378 6.94004 8.36932C6.87557 8.30485 6.83936 8.21742 6.83936 8.12625V7.93375Z" fill="#FFC546"/>
</g>
<path d="M6.83936 7.93375C6.83931 7.86443 6.85674 7.79623 6.89002 7.73542C6.92331 7.67462 6.97138 7.62319 7.02979 7.58588L10.7306 5.2305C10.8133 5.1779 10.9093 5.14996 11.0073 5.14996C11.1053 5.14996 11.2013 5.1779 11.284 5.2305L14.9842 7.58588C15.0427 7.62311 15.0909 7.67451 15.1243 7.73531C15.1577 7.79612 15.1753 7.86437 15.1753 7.93375V8.12625C15.1753 8.21742 15.1391 8.30485 15.0746 8.36932C15.0101 8.43378 14.9227 8.47 14.8315 8.47H7.18311C7.09194 8.47 7.0045 8.43378 6.94004 8.36932C6.87557 8.30485 6.83936 8.21742 6.83936 8.12625V7.93375Z" fill="url(#paint2_linear_327_1030)"/>
<path d="M7.13977 8.33044C7.13977 8.28485 7.15788 8.24114 7.19011 8.2089C7.22234 8.17667 7.26606 8.15856 7.31165 8.15856H8.07477C8.12035 8.15856 8.16407 8.17667 8.1963 8.2089C8.22854 8.24114 8.24665 8.28485 8.24665 8.33044V13.8414H7.13977V8.33044Z" fill="url(#paint3_linear_327_1030)"/>
<path d="M7.13977 8.33044C7.13977 8.28485 7.15788 8.24114 7.19011 8.2089C7.22234 8.17667 7.26606 8.15856 7.31165 8.15856H8.07477C8.12035 8.15856 8.16407 8.17667 8.1963 8.2089C8.22854 8.24114 8.24665 8.28485 8.24665 8.33044V13.8414H7.13977V8.33044Z" fill="url(#paint4_linear_327_1030)"/>
<path d="M9.35278 8.15856H10.459V13.8414H9.35278V8.15856Z" fill="url(#paint5_linear_327_1030)"/>
<path d="M9.35278 8.15856H10.459V13.8414H9.35278V8.15856Z" fill="url(#paint6_linear_327_1030)"/>
<path d="M11.5659 8.15856H12.6721V13.8414H11.5659V8.15856Z" fill="url(#paint7_linear_327_1030)"/>
<path d="M11.5659 8.15856H12.6721V13.8414H11.5659V8.15856Z" fill="url(#paint8_linear_327_1030)"/>
<path d="M13.7782 8.15856H14.8844V13.8414H13.7782V8.15856Z" fill="url(#paint9_linear_327_1030)"/>
<path d="M13.7782 8.15856H14.8844V13.8414H13.7782V8.15856Z" fill="url(#paint10_linear_327_1030)"/>
<g filter="url(#filter4_ii_327_1030)">
<path d="M6.6 14.0504C6.62693 13.9474 6.68731 13.8561 6.77167 13.7911C6.85602 13.726 6.95959 13.6908 7.06612 13.6909H14.9586C15.0675 13.6909 15.1731 13.7278 15.2583 13.7956C15.3434 13.8634 15.4031 13.9581 15.4275 14.0642L15.6152 14.8754C15.6269 14.9259 15.627 14.9784 15.6156 15.0289C15.6042 15.0794 15.5815 15.1267 15.5493 15.1672C15.517 15.2077 15.476 15.2405 15.4293 15.2629C15.3826 15.2854 15.3315 15.297 15.2797 15.2969H6.72031C6.66778 15.2969 6.61594 15.2849 6.56878 15.2617C6.52163 15.2386 6.4804 15.2049 6.44827 15.1634C6.41614 15.1218 6.39396 15.0735 6.38343 15.022C6.37291 14.9705 6.37432 14.9173 6.38756 14.8665L6.6 14.0504Z" fill="#FFC248"/>
</g>
<defs>
<filter id="filter0_i_327_1030" x="3.33594" y="3.80806" width="15.1406" height="15.1406" filterUnits="userSpaceOnUse" color-interpolation-filters="sRGB">
<feFlood flood-opacity="0" result="BackgroundImageFix"/>
<feBlend mode="normal" in="SourceGraphic" in2="BackgroundImageFix" result="shape"/>
<feColorMatrix in="SourceAlpha" type="matrix" values="0 0 0 0 0 0 0 0 0 0 0 0 0 0 0 0 0 0 127 0" result="hardAlpha"/>
<feOffset dx="-0.1875" dy="0.1875"/>
<feGaussianBlur stdDeviation="0.375"/>
<feComposite in2="hardAlpha" operator="arithmetic" k2="-1" k3="1"/>
<feColorMatrix type="matrix" values="0 0 0 0 0.831373 0 0 0 0 0.45098 0 0 0 0 0.196078 0 0 0 1 0"/>
<feBlend mode="normal" in2="shape" result="effect1_innerShadow_327_1030"/>
</filter>
<filter id="filter1_iiii_327_1030" x="1.17136" y="1.45594" width="19.6574" height="19.6574" filterUnits="userSpaceOnUse" color-interpolation-filters="sRGB">
<feFlood flood-opacity="0" result="BackgroundImageFix"/>
<feBlend mode="normal" in="SourceGraphic" in2="BackgroundImageFix" result="shape"/>
<feColorMatrix in="SourceAlpha" type="matrix" values="0 0 0 0 0 0 0 0 0 0 0 0 0 0 0 0 0 0 127 0" result="hardAlpha"/>
<feOffset dx="0.225" dy="0.225"/>
<feGaussianBlur stdDeviation="0.225"/>
<feComposite in2="hardAlpha" operator="arithmetic" k2="-1" k3="1"/>
<feColorMatrix type="matrix" values="0 0 0 0 0.886275 0 0 0 0 0.662745 0 0 0 0 0.235294 0 0 0 1 0"/>
<feBlend mode="normal" in2="shape" result="effect1_innerShadow_327_1030"/>
<feColorMatrix in="SourceAlpha" type="matrix" values="0 0 0 0 0 0 0 0 0 0 0 0 0 0 0 0 0 0 127 0" result="hardAlpha"/>
<feOffset dx="0.225" dy="-0.225"/>
<feGaussianBlur stdDeviation="0.225"/>
<feComposite in2="hardAlpha" operator="arithmetic" k2="-1" k3="1"/>
<feColorMatrix type="matrix" values="0 0 0 0 0.956863 0 0 0 0 0.607843 0 0 0 0 0.294118 0 0 0 1 0"/>
<feBlend mode="normal" in2="effect1_innerShadow_327_1030" result="effect2_innerShadow_327_1030"/>
<feColorMatrix in="SourceAlpha" type="matrix" values="0 0 0 0 0 0 0 0 0 0 0 0 0 0 0 0 0 0 127 0" result="hardAlpha"/>
<feOffset dy="-0.225"/>
<feGaussianBlur stdDeviation="0.225"/>
<feComposite in2="hardAlpha" operator="arithmetic" k2="-1" k3="1"/>
<feColorMatrix type="matrix" values="0 0 0 0 0.956863 0 0 0 0 0.607843 0 0 0 0 0.294118 0 0 0 1 0"/>
<feBlend mode="normal" in2="effect2_innerShadow_327_1030" result="effect3_innerShadow_327_1030"/>
<feColorMatrix in="SourceAlpha" type="matrix" values="0 0 0 0 0 0 0 0 0 0 0 0 0 0 0 0 0 0 127 0" result="hardAlpha"/>
<feOffset dx="-0.225" dy="0.225"/>
<feGaussianBlur stdDeviation="0.225"/>
<feComposite in2="hardAlpha" operator="arithmetic" k2="-1" k3="1"/>
<feColorMatrix type="matrix" values="0 0 0 0 1 0 0 0 0 0.882353 0 0 0 0 0.337255 0 0 0 1 0"/>
<feBlend mode="normal" in2="effect3_innerShadow_327_1030" result="effect4_innerShadow_327_1030"/>
</filter>
<filter id="filter2_f_327_1030" x="5.71138" y="4.89383" width="10.1474" height="11.0462" filterUnits="userSpaceOnUse" color-interpolation-filters="sRGB">
<feFlood flood-opacity="0" result="BackgroundImageFix"/>
<feBlend mode="normal" in="SourceGraphic" in2="BackgroundImageFix" result="shape"/>
<feGaussianBlur stdDeviation="0.225" result="effect1_foregroundBlur_327_1030"/>
</filter>
<filter id="filter3_ii_327_1030" x="6.83936" y="4.96246" width="8.44844" height="3.69504" filterUnits="userSpaceOnUse" color-interpolation-filters="sRGB">
<feFlood flood-opacity="0" result="BackgroundImageFix"/>
<feBlend mode="normal" in="SourceGraphic" in2="BackgroundImageFix" result="shape"/>
<feColorMatrix in="SourceAlpha" type="matrix" values="0 0 0 0 0 0 0 0 0 0 0 0 0 0 0 0 0 0 127 0" result="hardAlpha"/>
<feOffset dy="-0.1875"/>
<feGaussianBlur stdDeviation="0.1875"/>
<feComposite in2="hardAlpha" operator="arithmetic" k2="-1" k3="1"/>
<feColorMatrix type="matrix" values="0 0 0 0 0.980392 0 0 0 0 0.647059 0 0 0 0 0.172549 0 0 0 1 0"/>
<feBlend mode="normal" in2="shape" result="effect1_innerShadow_327_1030"/>
<feColorMatrix in="SourceAlpha" type="matrix" values="0 0 0 0 0 0 0 0 0 0 0 0 0 0 0 0 0 0 127 0" result="hardAlpha"/>
<feOffset dx="0.1125" dy="0.1875"/>
<feGaussianBlur stdDeviation="0.1875"/>
<feComposite in2="hardAlpha" operator="arithmetic" k2="-1" k3="1"/>
<feColorMatrix type="matrix" values="0 0 0 0 0.980392 0 0 0 0 0.647059 0 0 0 0 0.172549 0 0 0 1 0"/>
<feBlend mode="normal" in2="effect1_innerShadow_327_1030" result="effect2_innerShadow_327_1030"/>
</filter>
<filter id="filter4_ii_327_1030" x="6.18896" y="13.5034" width="9.62256" height="1.981" filterUnits="userSpaceOnUse" color-interpolation-filters="sRGB">
<feFlood flood-opacity="0" result="BackgroundImageFix"/>
<feBlend mode="normal" in="SourceGraphic" in2="BackgroundImageFix" result="shape"/>
<feColorMatrix in="SourceAlpha" type="matrix" values="0 0 0 0 0 0 0 0 0 0 0 0 0 0 0 0 0 0 127 0" result="hardAlpha"/>
<feOffset dx="0.1875" dy="-0.1875"/>
<feGaussianBlur stdDeviation="0.15"/>
<feComposite in2="hardAlpha" operator="arithmetic" k2="-1" k3="1"/>
<feColorMatrix type="matrix" values="0 0 0 0 0.992157 0 0 0 0 0.658824 0 0 0 0 0.0705882 0 0 0 1 0"/>
<feBlend mode="normal" in2="shape" result="effect1_innerShadow_327_1030"/>
<feColorMatrix in="SourceAlpha" type="matrix" values="0 0 0 0 0 0 0 0 0 0 0 0 0 0 0 0 0 0 127 0" result="hardAlpha"/>
<feOffset dx="-0.1875" dy="0.1875"/>
<feGaussianBlur stdDeviation="0.15"/>
<feComposite in2="hardAlpha" operator="arithmetic" k2="-1" k3="1"/>
<feColorMatrix type="matrix" values="0 0 0 0 1 0 0 0 0 0.8 0 0 0 0 0.290196 0 0 0 1 0"/>
<feBlend mode="normal" in2="effect1_innerShadow_327_1030" result="effect2_innerShadow_327_1030"/>
</filter>
<linearGradient id="paint0_linear_327_1030" x1="7.94956" y1="15.0232" x2="16.0277" y2="4.83931" gradientUnits="userSpaceOnUse">
<stop stop-color="#F19D48"/>
<stop offset="1" stop-color="#E89A44"/>
</linearGradient>
<linearGradient id="paint1_linear_327_1030" x1="11.0001" y1="1.68094" x2="11.0001" y2="20.8883" gradientUnits="userSpaceOnUse">
<stop stop-color="#FFC444"/>
<stop offset="1" stop-color="#FFC24B"/>
</linearGradient>
<linearGradient id="paint2_linear_327_1030" x1="13.2778" y1="6.38619" x2="12.998" y2="6.81038" gradientUnits="userSpaceOnUse">
<stop offset="0.459" stop-color="#FFCA3F"/>
<stop offset="1" stop-color="#FFCA3F" stop-opacity="0"/>
</linearGradient>
<linearGradient id="paint3_linear_327_1030" x1="7.24015" y1="10.3531" x2="7.77777" y2="10.3531" gradientUnits="userSpaceOnUse">
<stop offset="0.167" stop-color="#FFB33B"/>
<stop offset="1" stop-color="#FFC047"/>
</linearGradient>
<linearGradient id="paint4_linear_327_1030" x1="8.24665" y1="11.4716" x2="7.98127" y2="11.4716" gradientUnits="userSpaceOnUse">
<stop offset="0.067" stop-color="#FFC34C"/>
<stop offset="1" stop-color="#FFC34C" stop-opacity="0"/>
</linearGradient>
<linearGradient id="paint5_linear_327_1030" x1="9.45316" y1="10.3531" x2="9.9901" y2="10.3531" gradientUnits="userSpaceOnUse">
<stop offset="0.167" stop-color="#FFB33B"/>
<stop offset="1" stop-color="#FFC047"/>
</linearGradient>
<linearGradient id="paint6_linear_327_1030" x1="10.459" y1="11.4716" x2="10.1943" y2="11.4716" gradientUnits="userSpaceOnUse">
<stop offset="0.067" stop-color="#FFC34C"/>
<stop offset="1" stop-color="#FFC34C" stop-opacity="0"/>
</linearGradient>
<linearGradient id="paint7_linear_327_1030" x1="11.6663" y1="10.3531" x2="12.2032" y2="10.3531" gradientUnits="userSpaceOnUse">
<stop offset="0.167" stop-color="#FFB33B"/>
<stop offset="1" stop-color="#FFC047"/>
</linearGradient>
<linearGradient id="paint8_linear_327_1030" x1="12.6721" y1="11.4716" x2="12.4074" y2="11.4716" gradientUnits="userSpaceOnUse">
<stop offset="0.067" stop-color="#FFC34C"/>
<stop offset="1" stop-color="#FFC34C" stop-opacity="0"/>
</linearGradient>
<linearGradient id="paint9_linear_327_1030" x1="13.8793" y1="10.3531" x2="14.4162" y2="10.3531" gradientUnits="userSpaceOnUse">
<stop offset="0.167" stop-color="#FFB33B"/>
<stop offset="1" stop-color="#FFC047"/>
</linearGradient>
<linearGradient id="paint10_linear_327_1030" x1="14.8851" y1="11.4716" x2="14.6204" y2="11.4716" gradientUnits="userSpaceOnUse">
<stop offset="0.067" stop-color="#FFC34C"/>
<stop offset="1" stop-color="#FFC34C" stop-opacity="0"/>
</linearGradient>
</defs>
</svg>
