<svg width="31" height="30" viewBox="0 0 31 30" fill="none" xmlns="http://www.w3.org/2000/svg">
<path d="M18.7911 17.25L16.8486 19.1925L17.9136 20.25L20.9136 17.25L17.9136 14.25L16.8486 15.3075L18.7911 17.25ZM12.5361 17.25L14.4786 15.3075L13.4136 14.25L10.4136 17.25L13.4136 20.25L14.4786 19.1925L12.5361 17.25Z" fill="#430102"/>
<path d="M10.4136 9.75C10.8278 9.75 11.1636 9.41421 11.1636 9C11.1636 8.58579 10.8278 8.25 10.4136 8.25C9.99936 8.25 9.66357 8.58579 9.66357 9C9.66357 9.41421 9.99936 9.75 10.4136 9.75Z" fill="#430102"/>
<path d="M8.16357 9.75C8.57779 9.75 8.91357 9.41421 8.91357 9C8.91357 8.58579 8.57779 8.25 8.16357 8.25C7.74936 8.25 7.41357 8.58579 7.41357 9C7.41357 9.41421 7.74936 9.75 8.16357 9.75Z" fill="#430102"/>
<path d="M24.6636 6H6.66357C5.83632 6 5.16357 6.67275 5.16357 7.5V22.5C5.16357 23.3272 5.83632 24 6.66357 24H24.6636C25.4908 24 26.1636 23.3272 26.1636 22.5V7.5C26.1636 6.67275 25.4908 6 24.6636 6ZM24.6636 7.5V10.5H6.66357V7.5H24.6636ZM6.66357 22.5V12H24.6636V22.5H6.66357Z" fill="#430102"/>
</svg>
