<svg width="31" height="30" viewBox="0 0 31 30" fill="none" xmlns="http://www.w3.org/2000/svg">
<path d="M8.57158 5.074C8.6989 5.13522 8.80633 5.23115 8.88152 5.35074C8.95671 5.47034 8.9966 5.60873 8.99658 5.75C8.99658 6.58 9.30858 7.058 9.69958 7.64L9.72858 7.682C10.0606 8.176 10.4966 8.823 10.4966 9.75C10.4966 10.696 10.0196 11.53 9.29258 12.025C9.48358 12.185 9.65258 12.382 9.79858 12.618C10.2746 13.388 10.4966 14.565 10.4966 16.255C10.4966 17.967 10.2666 20.023 9.89158 21.665C9.70558 22.481 9.47458 23.234 9.19958 23.799C9.06975 24.0801 8.89777 24.3398 8.68958 24.569C8.48358 24.78 8.16658 25.005 7.74658 25.005C7.32658 25.005 7.00958 24.78 6.80458 24.569C6.59579 24.3402 6.42375 24.0805 6.29458 23.799C6.01858 23.233 5.78758 22.481 5.60158 21.664C5.21153 19.8867 5.00876 18.0735 4.99658 16.254C4.99658 14.564 5.21858 13.388 5.69458 12.618C5.83038 12.3945 6.00123 12.1943 6.20058 12.025C5.82936 11.773 5.52552 11.4338 5.31563 11.0372C5.10575 10.6407 4.99621 10.1987 4.99658 9.75C4.99658 9.382 4.99658 8.749 5.37958 7.932C5.75458 7.132 6.46758 6.213 7.77758 5.164C7.88799 5.07569 8.02111 5.02038 8.1616 5.00445C8.30208 4.98853 8.44421 5.01264 8.57158 5.074ZM6.49658 9.749C6.49658 10.0805 6.62828 10.3995 6.8627 10.6339C7.09712 10.8683 7.41506 11 7.74658 11C8.0781 11 8.39605 10.8683 8.63047 10.6339C8.86489 10.3995 8.99658 10.0815 8.99658 9.75C8.99658 9.311 8.81158 9.007 8.45458 8.476L8.44258 8.458C8.21358 8.118 7.94258 7.715 7.75058 7.198C7.20758 7.75 6.90758 8.208 6.73858 8.568C6.49658 9.084 6.49658 9.452 6.49658 9.749ZM6.97058 13.406C6.72258 13.808 6.49658 14.632 6.49658 16.255C6.49658 17.856 6.71458 19.8 7.06358 21.331C7.23958 22.101 7.43958 22.726 7.64258 23.142C7.67958 23.219 7.71458 23.283 7.74658 23.337C7.77858 23.283 7.81358 23.219 7.85058 23.142C8.05358 22.726 8.25358 22.1 8.42958 21.331C8.77958 19.801 8.99658 17.857 8.99658 16.255C8.99658 14.632 8.77058 13.808 8.52258 13.406C8.44779 13.2707 8.33474 13.1604 8.19758 13.089C8.05557 13.0272 7.90134 12.9984 7.74658 13.005C7.54658 13.005 7.40358 13.036 7.29558 13.089C7.15843 13.1604 7.04538 13.2707 6.97058 13.406ZM12.9966 17.918C12.4668 17.8291 11.9515 17.669 11.4646 17.442C11.4939 16.8748 11.5022 16.3068 11.4896 15.739C11.9406 16.042 12.4496 16.265 12.9966 16.389V13.5C12.9966 13.1022 13.1546 12.7206 13.4359 12.4393C13.7172 12.158 14.0988 12 14.4966 12H18.4966C18.4965 11.1607 18.2618 10.3381 17.8188 9.62524C17.3758 8.91235 16.7423 8.33755 15.9898 7.96578C15.2374 7.59401 14.3959 7.4401 13.5605 7.52142C12.7252 7.60275 11.9292 7.91608 11.2626 8.426C11.0626 7.873 10.7776 7.45 10.5796 7.156L10.5396 7.096C11.438 6.46265 12.4932 6.08829 13.59 6.01379C14.6867 5.93929 15.7828 6.16752 16.7587 6.67355C17.7345 7.17959 18.5526 7.94399 19.1236 8.8833C19.6946 9.82262 19.9966 10.9007 19.9966 12H23.4966C23.8944 12 24.2759 12.158 24.5572 12.4393C24.8385 12.7206 24.9966 13.1022 24.9966 13.5V22.5C24.9966 22.8978 24.8385 23.2794 24.5572 23.5607C24.2759 23.842 23.8944 24 23.4966 24H14.4966C14.0988 24 13.7172 23.842 13.4359 23.5607C13.1546 23.2794 12.9966 22.8978 12.9966 22.5V17.917V17.918ZM14.4966 17.981V22.501H23.4966V13.501H19.8066C19.495 14.706 18.8167 15.7844 17.8654 16.587C16.9141 17.3896 15.7369 17.8768 14.4966 17.981ZM18.2406 13.501H14.4966V16.474C15.3368 16.3798 16.1335 16.051 16.7956 15.5253C17.4577 14.9995 17.9585 14.298 18.2406 13.501Z" fill="#430102"/>
</svg>
