<svg width="31" height="30" viewBox="0 0 31 30" fill="none" xmlns="http://www.w3.org/2000/svg">
<path d="M11.6335 5H20.0335C23.2335 5 25.8335 7.6 25.8335 10.8V19.2C25.8335 20.7383 25.2224 22.2135 24.1347 23.3012C23.047 24.3889 21.5718 25 20.0335 25H11.6335C8.4335 25 5.8335 22.4 5.8335 19.2V10.8C5.8335 9.26174 6.44457 7.78649 7.53228 6.69878C8.61999 5.61107 10.0952 5 11.6335 5ZM11.4335 7C10.4787 7 9.56304 7.37928 8.88791 8.05442C8.21278 8.72955 7.8335 9.64522 7.8335 10.6V19.4C7.8335 21.39 9.4435 23 11.4335 23H20.2335C21.1883 23 22.104 22.6207 22.7791 21.9456C23.4542 21.2705 23.8335 20.3548 23.8335 19.4V10.6C23.8335 8.61 22.2235 7 20.2335 7H11.4335ZM21.0835 8.5C21.415 8.5 21.733 8.6317 21.9674 8.86612C22.2018 9.10054 22.3335 9.41848 22.3335 9.75C22.3335 10.0815 22.2018 10.3995 21.9674 10.6339C21.733 10.8683 21.415 11 21.0835 11C20.752 11 20.434 10.8683 20.1996 10.6339C19.9652 10.3995 19.8335 10.0815 19.8335 9.75C19.8335 9.41848 19.9652 9.10054 20.1996 8.86612C20.434 8.6317 20.752 8.5 21.0835 8.5ZM15.8335 10C17.1596 10 18.4313 10.5268 19.369 11.4645C20.3067 12.4021 20.8335 13.6739 20.8335 15C20.8335 16.3261 20.3067 17.5979 19.369 18.5355C18.4313 19.4732 17.1596 20 15.8335 20C14.5074 20 13.2356 19.4732 12.298 18.5355C11.3603 17.5979 10.8335 16.3261 10.8335 15C10.8335 13.6739 11.3603 12.4021 12.298 11.4645C13.2356 10.5268 14.5074 10 15.8335 10ZM15.8335 12C15.0378 12 14.2748 12.3161 13.7122 12.8787C13.1496 13.4413 12.8335 14.2044 12.8335 15C12.8335 15.7956 13.1496 16.5587 13.7122 17.1213C14.2748 17.6839 15.0378 18 15.8335 18C16.6291 18 17.3922 17.6839 17.9548 17.1213C18.5174 16.5587 18.8335 15.7956 18.8335 15C18.8335 14.2044 18.5174 13.4413 17.9548 12.8787C17.3922 12.3161 16.6291 12 15.8335 12Z" fill="#430102"/>
</svg>
