<svg width="31" height="30" viewBox="0 0 31 30" fill="none" xmlns="http://www.w3.org/2000/svg">
<path d="M10.1064 7.99999C10.1062 8.53043 9.89521 9.03903 9.51995 9.41391C9.14469 9.7888 8.63588 9.99926 8.10545 9.99899C7.57501 9.99873 7.06641 9.78776 6.69152 9.4125C6.31664 9.03724 6.10618 8.52843 6.10645 7.99799C6.10671 7.46756 6.31768 6.95896 6.69294 6.58407C7.0682 6.20919 7.57701 5.99873 8.10745 5.99899C8.63788 5.99926 9.14648 6.21023 9.52137 6.58549C9.89625 6.96075 10.1067 7.46956 10.1064 7.99999ZM10.1664 11.48H6.16645V24H10.1664V11.48ZM16.4864 11.48H12.5064V24H16.4464V17.43C16.4464 13.77 21.2164 13.43 21.2164 17.43V24H25.1664V16.07C25.1664 9.89999 18.1064 10.13 16.4464 13.16L16.4864 11.48Z" fill="#430102"/>
</svg>
