<svg width="26" height="25" viewBox="0 0 26 25" fill="none" xmlns="http://www.w3.org/2000/svg">
<g clip-path="url(#clip0_249_226)">
<path d="M19.9582 3.125C20.5107 3.125 21.0406 3.34449 21.4313 3.73519C21.822 4.12589 22.0415 4.6558 22.0415 5.20833V19.7917C22.0415 20.3442 21.822 20.8741 21.4313 21.2648C21.0406 21.6555 20.5107 21.875 19.9582 21.875H5.37484C4.8223 21.875 4.2924 21.6555 3.9017 21.2648C3.511 20.8741 3.2915 20.3442 3.2915 19.7917V5.20833C3.2915 4.6558 3.511 4.12589 3.9017 3.73519C4.2924 3.34449 4.8223 3.125 5.37484 3.125H19.9582ZM19.9582 5.20833H5.37484V19.7917H19.9582V5.20833ZM12.705 8.05104C12.9873 7.14687 14.205 7.06146 14.6321 7.85938L14.6863 7.97396L16.4967 12.5H17.8748C18.1403 12.5003 18.3957 12.602 18.5888 12.7842C18.7818 12.9665 18.898 13.2156 18.9136 13.4806C18.9291 13.7457 18.8429 14.0066 18.6725 14.2102C18.5021 14.4138 18.2604 14.5447 17.9967 14.576L17.8748 14.5833H15.7988C15.6102 14.5834 15.425 14.5328 15.2626 14.4368C15.1002 14.3408 14.9667 14.2029 14.8759 14.0375L14.8217 13.9229L13.829 11.4396L12.1061 16.9531C11.8363 17.8156 10.6946 17.9458 10.2238 17.2188L10.1613 17.1094L8.89671 14.5833H7.45817C7.19267 14.583 6.9373 14.4814 6.74424 14.2991C6.55119 14.1169 6.43501 13.8678 6.41945 13.6027C6.40389 13.3377 6.49012 13.0767 6.66053 12.8731C6.83094 12.6695 7.07265 12.5386 7.3363 12.5073L7.45817 12.5H9.53525C9.88942 12.5 10.2165 12.6771 10.4103 12.9677L10.4759 13.0823L10.88 13.8906L12.705 8.05104Z" fill="#430102"/>
</g>
<defs>
<clipPath id="clip0_249_226">
<rect width="25" height="25" fill="white" transform="translate(0.166504)"/>
</clipPath>
</defs>
</svg>
