<svg width="31" height="30" viewBox="0 0 31 30" fill="none" xmlns="http://www.w3.org/2000/svg">
<path d="M11.6585 22.191C11.6815 21.855 11.7295 21.52 11.8015 21.19C11.8645 20.895 12.0555 20.06 12.3355 18.85L12.3425 18.82L12.7295 17.152C12.8085 16.812 12.8695 16.548 12.9105 16.46C12.7163 16.0111 12.6195 15.5261 12.6265 15.037C12.6265 13.7 13.3825 12.664 14.3625 12.664C14.7225 12.658 15.0665 12.814 15.3045 13.09C15.5425 13.366 15.6525 13.733 15.6065 14.086C15.6065 14.539 15.5215 14.884 15.1525 16.121C15.0955 16.3107 15.0405 16.5011 14.9875 16.692C14.9365 16.88 14.8925 17.05 14.8555 17.214C14.7595 17.6 14.8475 18.011 15.0925 18.319C15.2113 18.4702 15.3647 18.5906 15.5398 18.6702C15.7148 18.7497 15.9065 18.786 16.0985 18.776C17.5905 18.776 18.6985 16.791 18.6985 14.228C18.6985 12.258 17.4085 10.954 15.2665 10.954C14.7303 10.9341 14.1958 11.0256 13.6968 11.2229C13.1978 11.4201 12.7451 11.7188 12.3675 12.1C11.9818 12.4895 11.6774 12.952 11.4723 13.4603C11.2671 13.9687 11.1652 14.5128 11.1725 15.061C11.1476 15.6518 11.3286 16.2328 11.6845 16.705C11.8655 16.845 11.9345 17.088 11.8595 17.295C11.8185 17.463 11.7195 17.847 11.6825 17.975C11.672 18.0376 11.6472 18.0969 11.6098 18.1483C11.5725 18.1997 11.5238 18.2417 11.4675 18.271C11.4128 18.2997 11.3521 18.315 11.2904 18.3155C11.2286 18.316 11.1676 18.3018 11.1125 18.274C9.9525 17.795 9.3165 16.496 9.3165 14.834C9.3165 11.849 11.8075 9.25 15.5085 9.25C18.6435 9.25 20.9895 11.579 20.9895 14.39C20.9895 17.922 19.0575 20.494 16.2995 20.494C15.9072 20.5054 15.5177 20.4245 15.1624 20.258C14.807 20.0914 14.4957 19.8438 14.2535 19.535L14.2105 19.712L14.0035 20.564L14.0015 20.572C13.8555 21.172 13.7535 21.589 13.7135 21.745C13.6075 22.1 13.4735 22.448 13.3135 22.785C15.3033 23.2592 17.3992 22.9532 19.1703 21.9299C20.9415 20.9066 22.2534 19.2437 22.8364 17.283C23.4193 15.3223 23.2291 13.2127 22.3048 11.3879C21.3805 9.56317 19.7923 8.16177 17.8666 7.4718C15.941 6.78182 13.8242 6.85568 11.9513 7.6782C10.0784 8.50073 8.59175 10.0094 7.79687 11.8942C7.00199 13.779 6.95927 15.8966 7.67749 17.8119C8.39572 19.7272 9.82032 21.2936 11.6585 22.191ZM15.1665 25C9.6435 25 5.1665 20.523 5.1665 15C5.1665 9.477 9.6435 5 15.1665 5C20.6895 5 25.1665 9.477 25.1665 15C25.1665 20.523 20.6895 25 15.1665 25Z" fill="#430102"/>
</svg>
