<svg width="31" height="30" viewBox="0 0 31 30" fill="none" xmlns="http://www.w3.org/2000/svg">
<g clip-path="url(#clip0_249_105)">
<path d="M18.389 26.979L25.605 25.418C25.605 25.418 23.001 7.8 22.98 7.688C22.973 7.63631 22.948 7.58873 22.9094 7.55362C22.8708 7.51851 22.8211 7.49811 22.769 7.496C22.669 7.496 20.84 7.36 20.84 7.36C20.84 7.36 19.565 6.086 19.401 5.949C19.3665 5.91758 19.3265 5.89282 19.283 5.876L19.28 5.875L18.366 26.975H18.389V26.979ZM14.762 14.305C14.2101 14.0361 13.6059 13.8914 12.992 13.881H12.988C11.541 13.881 11.488 14.787 11.488 15.022C11.488 16.254 14.728 16.737 14.728 19.651C14.728 21.951 13.288 23.411 11.322 23.411L11.189 23.413C10.5516 23.4137 9.92071 23.2842 9.33517 23.0322C8.74963 22.7803 8.22177 22.4113 7.784 21.948L7.782 21.946L8.428 19.86C9.048 20.404 9.825 20.783 10.682 20.923L10.708 20.926L10.739 20.927C10.9872 20.9268 11.2254 20.8289 11.402 20.6545C11.5787 20.4801 11.6796 20.2432 11.683 19.995V19.994C11.683 18.375 9.029 18.3 9.029 15.635C8.991 13.4 10.596 11.219 13.852 11.219C14.506 11.1842 15.1585 11.312 15.751 11.591L15.727 11.581L14.782 14.301L14.762 14.311V14.305ZM14.222 3.83C14.3672 3.83058 14.5083 3.8783 14.624 3.966L14.622 3.965C13.643 4.43 12.563 5.6 12.119 7.957C11.4924 8.15956 10.8627 8.35225 10.23 8.535C10.752 6.75 12.003 3.84 14.222 3.84V3.83ZM15.452 6.779V6.914C14.698 7.146 13.869 7.398 13.058 7.65C13.1589 7.03256 13.3977 6.4458 13.7566 5.93334C14.1155 5.42088 14.5853 4.9959 15.131 4.69L15.152 4.679C15.3852 5.35702 15.49 6.07258 15.461 6.789V6.779H15.452ZM15.991 4.545C16.685 4.619 17.132 5.412 17.42 6.3C17.071 6.414 16.685 6.531 16.262 6.666V6.414L16.264 6.282C16.264 5.661 16.164 5.062 15.98 4.503L15.991 4.543V4.545ZM18.983 5.834C18.963 5.834 18.923 5.855 18.905 5.855C18.887 5.855 18.616 5.93 18.191 6.065C17.768 4.832 17.015 3.695 15.683 3.695H15.568C15.4256 3.49302 15.2396 3.32568 15.0237 3.20537C14.8079 3.08506 14.5677 3.01487 14.321 3H14.317C11.211 3 9.727 6.877 9.262 8.846C8.068 9.211 7.199 9.482 7.102 9.52C6.427 9.733 6.408 9.752 6.33 10.39C6.255 10.852 4.5 24.453 4.5 24.453L18.061 27L18.988 5.834H18.983Z" fill="#430102"/>
</g>
<defs>
<clipPath id="clip0_249_105">
<rect width="21" height="24" fill="white" transform="translate(4.5 3)"/>
</clipPath>
</defs>
</svg>
