<svg width="31" height="30" viewBox="0 0 31 30" fill="none" xmlns="http://www.w3.org/2000/svg">
<path d="M11 22.5L15 20L11 17.5V22.5ZM16.5 10.75H20.5V9.25H16.5V10.75ZM6.5 26C5.95 26 5.479 25.804 5.087 25.412C4.695 25.02 4.49934 24.5493 4.5 24V16C4.5 15.45 4.696 14.979 5.088 14.587C5.48 14.195 5.95067 13.9993 6.5 14H18.5C19.05 14 19.521 14.196 19.913 14.588C20.305 14.98 20.5007 15.4507 20.5 16V24C20.5 24.55 20.304 25.021 19.912 25.413C19.52 25.805 19.0493 26.0007 18.5 26H6.5ZM22 17V16C22 15.3667 21.8457 14.7833 21.537 14.25C21.2283 13.7167 20.816 13.3 20.3 13H20.5C21.3333 13 22.0417 12.7083 22.625 12.125C23.2083 11.5417 23.5 10.8333 23.5 10C23.5 9.16667 23.2083 8.45833 22.625 7.875C22.0417 7.29167 21.3333 7 20.5 7H19.25V8.5H20.5C20.9167 8.5 21.271 8.646 21.563 8.938C21.855 9.23 22.0007 9.584 22 10C22 10.4167 21.854 10.771 21.562 11.063C21.27 11.355 20.916 11.5007 20.5 11.5H19.25V12.575C19.1167 12.5417 18.9917 12.5207 18.875 12.512C18.7583 12.5033 18.6333 12.4993 18.5 12.5H17.75V11.5H16.5C16.0833 11.5 15.729 11.354 15.437 11.062C15.145 10.77 14.9993 10.416 15 10C15 9.58334 15.146 9.229 15.438 8.937C15.73 8.645 16.084 8.49934 16.5 8.5H17.75V7H16.5C15.6667 7 14.9583 7.29167 14.375 7.875C13.7917 8.45833 13.5 9.16667 13.5 10C13.5 10.5333 13.625 11.0127 13.875 11.438C14.125 11.8633 14.45 12.2173 14.85 12.5H10.5V6C10.5 5.45 10.696 4.979 11.088 4.587C11.48 4.195 11.9507 3.99934 12.5 4H24.5C25.05 4 25.521 4.196 25.913 4.588C26.305 4.98 26.5007 5.45067 26.5 6V15C26.5 15.55 26.304 16.021 25.912 16.413C25.52 16.805 25.0493 17.0007 24.5 17H22Z" fill="#430102"/>
</svg>
