<svg width="31" height="30" viewBox="0 0 31 30" fill="none" xmlns="http://www.w3.org/2000/svg">
<path d="M22.6998 5.40002H19.0998V6.60002H11.8998V5.40002H8.2998V23.4H11.8998V22.2H19.0998V23.4H22.6998V5.40002ZM10.6998 6.60002V7.80002H9.4998V6.60002H10.6998ZM21.4998 6.60002V7.80002H20.2998V6.60002H21.4998ZM19.0998 7.80002V13.8H11.8998V7.80002H19.0998ZM10.6998 9.00002V10.2H9.4998V9.00002H10.6998ZM21.4998 9.00002V10.2H20.2998V9.00002H21.4998ZM10.6998 11.4V12.6H9.4998V11.4H10.6998ZM21.4998 11.4V12.6H20.2998V11.4H21.4998ZM10.6998 13.8V15H9.4998V13.8H10.6998ZM21.4998 13.8V15H20.2998V13.8H21.4998ZM19.0998 15V21H11.8998V15H19.0998ZM10.6998 16.2V17.4H9.4998V16.2H10.6998ZM21.4998 16.2V17.4H20.2998V16.2H21.4998ZM10.6998 18.6V19.8H9.4998V18.6H10.6998ZM21.4998 18.6V19.8H20.2998V18.6H21.4998ZM10.6998 21V22.2H9.4998V21H10.6998ZM21.4998 21V22.2H20.2998V21H21.4998Z" fill="#430102"/>
</svg>
