<svg width="25" height="24" viewBox="0 0 25 24" fill="none" xmlns="http://www.w3.org/2000/svg">
<path fill-rule="evenodd" clip-rule="evenodd" d="M3.6305 3.464C2.1665 4.93 2.1665 7.286 2.1665 12C2.1665 16.714 2.1665 19.071 3.6305 20.535C5.0965 22 7.4525 22 12.1665 22C16.8805 22 19.2375 22 20.7015 20.535C22.1665 19.072 22.1665 16.714 22.1665 12C22.1665 7.286 22.1665 4.929 20.7015 3.464C19.2385 2 16.8805 2 12.1665 2C7.4525 2 5.0955 2 3.6305 3.464ZM6.5905 9.52C6.71784 9.36729 6.90061 9.27139 7.09863 9.25338C7.29665 9.23538 7.49372 9.29675 7.6465 9.424L7.9235 9.654C8.5285 10.158 9.0435 10.587 9.3995 10.982C9.7785 11.402 10.0735 11.883 10.0735 12.5C10.0735 13.117 9.7785 13.599 9.3995 14.018C9.0435 14.413 8.5285 14.842 7.9235 15.346L7.6465 15.576C7.57124 15.6418 7.48356 15.692 7.38863 15.7234C7.2937 15.7549 7.19344 15.7671 7.09374 15.7592C6.99405 15.7513 6.89693 15.7236 6.8081 15.6777C6.71927 15.6317 6.64053 15.5685 6.57651 15.4917C6.51249 15.4148 6.46448 15.326 6.4353 15.2303C6.40613 15.1347 6.39638 15.0341 6.40662 14.9347C6.41687 14.8352 6.44691 14.7388 6.49498 14.6511C6.54304 14.5634 6.60816 14.4862 6.6865 14.424L6.9205 14.229C7.5795 13.679 8.0105 13.319 8.2865 13.013C8.5485 12.723 8.5735 12.586 8.5735 12.5C8.5735 12.414 8.5485 12.278 8.2865 11.987C8.0095 11.681 7.5795 11.32 6.9205 10.771L6.6865 10.576C6.53379 10.4487 6.43789 10.2659 6.41989 10.0679C6.40189 9.86985 6.46325 9.67279 6.5905 9.52ZM17.9165 15C17.9165 15.1989 17.8375 15.3897 17.6968 15.5303C17.5562 15.671 17.3654 15.75 17.1665 15.75H12.1665C11.9676 15.75 11.7768 15.671 11.6362 15.5303C11.4955 15.3897 11.4165 15.1989 11.4165 15C11.4165 14.8011 11.4955 14.6103 11.6362 14.4697C11.7768 14.329 11.9676 14.25 12.1665 14.25H17.1665C17.3654 14.25 17.5562 14.329 17.6968 14.4697C17.8375 14.6103 17.9165 14.8011 17.9165 15Z" fill="#430102"/>
</svg>
