<svg width="31" height="30" viewBox="0 0 31 30" fill="none" xmlns="http://www.w3.org/2000/svg">
<path d="M25.5 14.9344C25.5 14.8828 25.5 14.8242 25.4977 14.7563C25.4953 14.5664 25.4906 14.3531 25.4859 14.1258C25.4672 13.4719 25.4344 12.8203 25.3828 12.2063C25.3125 11.3602 25.2094 10.6547 25.0687 10.125C24.9204 9.57223 24.6295 9.06809 24.2252 8.66297C23.8209 8.25784 23.3173 7.96593 22.7648 7.81641C22.1016 7.63829 20.8031 7.52813 18.975 7.46016C18.1055 7.42735 17.175 7.40626 16.2445 7.39454C15.9187 7.38985 15.6164 7.38751 15.3445 7.38516H14.6555C14.3836 7.38751 14.0813 7.38985 13.7555 7.39454C12.825 7.40626 11.8945 7.42735 11.025 7.46016C9.19687 7.53047 7.89609 7.64063 7.23516 7.81641C6.6825 7.96557 6.17876 8.25735 5.7744 8.66253C5.37004 9.06771 5.07928 9.57205 4.93125 10.125C4.78828 10.6547 4.6875 11.3602 4.61719 12.2063C4.56562 12.8203 4.53281 13.4719 4.51406 14.1258C4.50703 14.3531 4.50469 14.5664 4.50234 14.7563C4.50234 14.8242 4.5 14.8828 4.5 14.9344V15.0656C4.5 15.1172 4.5 15.1758 4.50234 15.2438C4.50469 15.4336 4.50937 15.6469 4.51406 15.8742C4.53281 16.5281 4.56562 17.1797 4.61719 17.7938C4.6875 18.6398 4.79063 19.3453 4.93125 19.875C5.23125 20.9977 6.1125 21.8836 7.23516 22.1836C7.89609 22.3617 9.19687 22.4719 11.025 22.5398C11.8945 22.5727 12.825 22.5938 13.7555 22.6055C14.0813 22.6102 14.3836 22.6125 14.6555 22.6149H15.3445C15.6164 22.6125 15.9187 22.6102 16.2445 22.6055C17.175 22.5938 18.1055 22.5727 18.975 22.5398C20.8031 22.4695 22.1039 22.3594 22.7648 22.1836C23.8875 21.8836 24.7687 21 25.0687 19.875C25.2117 19.3453 25.3125 18.6398 25.3828 17.7938C25.4344 17.1797 25.4672 16.5281 25.4859 15.8742C25.493 15.6469 25.4953 15.4336 25.4977 15.2438C25.4977 15.1758 25.5 15.1172 25.5 15.0656V14.9344ZM23.8125 15.0563C23.8125 15.1055 23.8125 15.1594 23.8102 15.2227C23.8078 15.4055 23.8031 15.607 23.7984 15.825C23.782 16.4484 23.7492 17.0719 23.7 17.6508C23.6367 18.4055 23.5477 19.0242 23.4375 19.4391C23.2922 19.9805 22.8656 20.4094 22.3266 20.5524C21.8344 20.6836 20.5945 20.7891 18.9094 20.8523C18.0562 20.8852 17.1375 20.9063 16.2211 20.918C15.9 20.9227 15.6023 20.925 15.3352 20.925H14.6648L13.7789 20.918C12.8625 20.9063 11.9461 20.8852 11.0906 20.8523C9.40547 20.7867 8.16328 20.6836 7.67344 20.5524C7.13437 20.407 6.70781 19.9805 6.5625 19.4391C6.45234 19.0242 6.36328 18.4055 6.3 17.6508C6.25078 17.0719 6.22031 16.4484 6.20156 15.825C6.19453 15.607 6.19219 15.4031 6.18984 15.2227C6.18984 15.1594 6.1875 15.1031 6.1875 15.0563V14.9438C6.1875 14.8945 6.1875 14.8406 6.18984 14.7773C6.19219 14.5945 6.19688 14.393 6.20156 14.175C6.21797 13.5516 6.25078 12.9281 6.3 12.3492C6.36328 11.5945 6.45234 10.9758 6.5625 10.5609C6.70781 10.0195 7.13437 9.59063 7.67344 9.44766C8.16562 9.31641 9.40547 9.21094 11.0906 9.14766C11.9438 9.11485 12.8625 9.09376 13.7789 9.08204C14.1 9.07735 14.3977 9.07501 14.6648 9.07501H15.3352L16.2211 9.08204C17.1375 9.09376 18.0539 9.11485 18.9094 9.14766C20.5945 9.21329 21.8367 9.31641 22.3266 9.44766C22.8656 9.59297 23.2922 10.0195 23.4375 10.5609C23.5477 10.9758 23.6367 11.5945 23.7 12.3492C23.7492 12.9281 23.7797 13.5516 23.7984 14.175C23.8055 14.393 23.8078 14.5969 23.8102 14.7773C23.8102 14.8406 23.8125 14.8969 23.8125 14.9438V15.0563ZM12.9141 18.1406L18.3516 14.9766L12.9141 11.8594V18.1406Z" fill="#430102"/>
</svg>
